<svg xmlns="http://www.w3.org/2000/svg" version="1.1" xmlns:xlink="http://www.w3.org/1999/xlink" xmlns:svgjs="http://svgjs.dev/svgjs" width="1440" height="560" preserveAspectRatio="none" viewBox="0 0 1440 560"><g mask="url(&quot;#SvgjsMask1697&quot;)" fill="none"><rect width="1440" height="560" x="0" y="0" fill="url(&quot;#SvgjsLinearGradient1698&quot;)"></rect><path d="M553 263L552 502" stroke-width="6" stroke="url(&quot;#SvgjsLinearGradient1699&quot;)" stroke-linecap="round" class="Up"></path><path d="M7 513L6 837" stroke-width="10" stroke="url(&quot;#SvgjsLinearGradient1699&quot;)" stroke-linecap="round" class="Up"></path><path d="M1382 345L1381 41" stroke-width="6" stroke="url(&quot;#SvgjsLinearGradient1700&quot;)" stroke-linecap="round" class="Down"></path><path d="M81 265L80 107" stroke-width="6" stroke="url(&quot;#SvgjsLinearGradient1700&quot;)" stroke-linecap="round" class="Down"></path><path d="M56 310L55 579" stroke-width="8" stroke="url(&quot;#SvgjsLinearGradient1700&quot;)" stroke-linecap="round" class="Down"></path><path d="M62 167L61 330" stroke-width="8" stroke="url(&quot;#SvgjsLinearGradient1699&quot;)" stroke-linecap="round" class="Up"></path><path d="M1116 220L1115 614" stroke-width="6" stroke="url(&quot;#SvgjsLinearGradient1700&quot;)" stroke-linecap="round" class="Down"></path><path d="M512 499L511 887" stroke-width="8" stroke="url(&quot;#SvgjsLinearGradient1699&quot;)" stroke-linecap="round" class="Up"></path><path d="M129 254L128 -138" stroke-width="10" stroke="url(&quot;#SvgjsLinearGradient1699&quot;)" stroke-linecap="round" class="Up"></path><path d="M52 24L51 278" stroke-width="8" stroke="url(&quot;#SvgjsLinearGradient1699&quot;)" stroke-linecap="round" class="Up"></path><path d="M248 241L247 394" stroke-width="8" stroke="url(&quot;#SvgjsLinearGradient1700&quot;)" stroke-linecap="round" class="Down"></path><path d="M1120 468L1119 306" stroke-width="10" stroke="url(&quot;#SvgjsLinearGradient1700&quot;)" stroke-linecap="round" class="Down"></path><path d="M521 127L520 -153" stroke-width="6" stroke="url(&quot;#SvgjsLinearGradient1700&quot;)" stroke-linecap="round" class="Down"></path><path d="M1291 294L1290 -14" stroke-width="6" stroke="url(&quot;#SvgjsLinearGradient1700&quot;)" stroke-linecap="round" class="Down"></path><path d="M824 76L823 -79" stroke-width="8" stroke="url(&quot;#SvgjsLinearGradient1700&quot;)" stroke-linecap="round" class="Down"></path><path d="M140 524L139 144" stroke-width="8" stroke="url(&quot;#SvgjsLinearGradient1699&quot;)" stroke-linecap="round" class="Up"></path><path d="M501 200L500 513" stroke-width="6" stroke="url(&quot;#SvgjsLinearGradient1699&quot;)" stroke-linecap="round" class="Up"></path><path d="M665 239L664 -91" stroke-width="6" stroke="url(&quot;#SvgjsLinearGradient1700&quot;)" stroke-linecap="round" class="Down"></path><path d="M996 378L995 712" stroke-width="6" stroke="url(&quot;#SvgjsLinearGradient1700&quot;)" stroke-linecap="round" class="Down"></path><path d="M1192 482L1191 129" stroke-width="10" stroke="url(&quot;#SvgjsLinearGradient1700&quot;)" stroke-linecap="round" class="Down"></path><path d="M477 302L476 -1" stroke-width="8" stroke="url(&quot;#SvgjsLinearGradient1699&quot;)" stroke-linecap="round" class="Up"></path><path d="M1268 431L1267 761" stroke-width="8" stroke="url(&quot;#SvgjsLinearGradient1699&quot;)" stroke-linecap="round" class="Up"></path><path d="M675 470L674 291" stroke-width="6" stroke="url(&quot;#SvgjsLinearGradient1699&quot;)" stroke-linecap="round" class="Up"></path><path d="M1430 232L1429 469" stroke-width="10" stroke="url(&quot;#SvgjsLinearGradient1700&quot;)" stroke-linecap="round" class="Down"></path><path d="M465 184L464 -65" stroke-width="10" stroke="url(&quot;#SvgjsLinearGradient1699&quot;)" stroke-linecap="round" class="Up"></path><path d="M824 167L823 -99" stroke-width="10" stroke="url(&quot;#SvgjsLinearGradient1699&quot;)" stroke-linecap="round" class="Up"></path><path d="M372 93L371 277" stroke-width="10" stroke="url(&quot;#SvgjsLinearGradient1699&quot;)" stroke-linecap="round" class="Up"></path><path d="M569 59L568 371" stroke-width="6" stroke="url(&quot;#SvgjsLinearGradient1699&quot;)" stroke-linecap="round" class="Up"></path><path d="M53 102L52 -115" stroke-width="10" stroke="url(&quot;#SvgjsLinearGradient1699&quot;)" stroke-linecap="round" class="Up"></path><path d="M1135 500L1134 895" stroke-width="10" stroke="url(&quot;#SvgjsLinearGradient1699&quot;)" stroke-linecap="round" class="Up"></path><path d="M476 175L475 -219" stroke-width="8" stroke="url(&quot;#SvgjsLinearGradient1699&quot;)" stroke-linecap="round" class="Up"></path><path d="M1151 371L1150 779" stroke-width="6" stroke="url(&quot;#SvgjsLinearGradient1699&quot;)" stroke-linecap="round" class="Up"></path><path d="M694 245L693 73" stroke-width="8" stroke="url(&quot;#SvgjsLinearGradient1700&quot;)" stroke-linecap="round" class="Down"></path><path d="M46 368L45 700" stroke-width="10" stroke="url(&quot;#SvgjsLinearGradient1700&quot;)" stroke-linecap="round" class="Down"></path><path d="M1090 385L1089 39" stroke-width="10" stroke="url(&quot;#SvgjsLinearGradient1699&quot;)" stroke-linecap="round" class="Up"></path><path d="M1434 352L1433 744" stroke-width="10" stroke="url(&quot;#SvgjsLinearGradient1699&quot;)" stroke-linecap="round" class="Up"></path></g><defs><mask id="SvgjsMask1697"><rect width="1440" height="560" fill="#ffffff"></rect></mask><linearGradient x1="15.28%" y1="-39.29%" x2="84.72%" y2="139.29%" gradientUnits="userSpaceOnUse" id="SvgjsLinearGradient1698"><stop stop-color="#0e2a47" offset="0"></stop><stop stop-color="rgba(1, 15, 33, 1)" offset="1"></stop></linearGradient><linearGradient x1="0%" y1="100%" x2="0%" y2="0%" id="SvgjsLinearGradient1699"><stop stop-color="rgba(0, 96, 255, 0)" offset="0"></stop><stop stop-color="rgba(0, 96, 255, 1)" offset="1"></stop></linearGradient><linearGradient x1="0%" y1="0%" x2="0%" y2="100%" id="SvgjsLinearGradient1700"><stop stop-color="rgba(0, 96, 255, 0)" offset="0"></stop><stop stop-color="rgba(0, 96, 255, 1)" offset="1"></stop></linearGradient></defs></svg>