<?xml version="1.0" standalone="no"?>
<!DOCTYPE svg PUBLIC "-//W3C//DTD SVG 20010904//EN"
 "http://www.w3.org/TR/2001/REC-SVG-20010904/DTD/svg10.dtd">
<svg version="1.0" xmlns="http://www.w3.org/2000/svg"
 width="700.000000pt" height="700.000000pt" viewBox="0 0 700.000000 700.000000"
 preserveAspectRatio="xMidYMid meet">
<metadata>
Created by potrace 1.14, written by Peter Selinger 2001-2017
</metadata>
<g transform="translate(0.000000,700.000000) scale(0.100000,-0.100000)"
fill="#000000" stroke="none">
<path d="M3378 6415 c-2 -1 -50 -5 -108 -9 -58 -4 -116 -8 -130 -10 -14 -2
-46 -6 -70 -10 -68 -9 -194 -34 -290 -57 -104 -25 -331 -98 -345 -110 -5 -5
-15 -9 -23 -9 -30 0 -321 -142 -443 -217 -488 -297 -858 -702 -1111 -1216 -26
-53 -48 -99 -48 -102 0 -3 -9 -24 -19 -48 -30 -65 -97 -271 -125 -382 -22 -87
-36 -161 -60 -315 -19 -114 -25 -415 -13 -580 29 -408 171 -851 383 -1202 49
-81 147 -228 175 -262 5 -6 42 -52 83 -102 40 -49 127 -144 192 -210 66 -65
127 -130 135 -144 39 -62 43 -96 44 -450 2 -378 2 -382 64 -452 44 -50 113
-80 184 -81 55 -1 73 7 428 184 l371 184 71 0 c40 -1 83 -4 97 -7 46 -12 175
-37 215 -42 22 -4 51 -8 65 -11 155 -27 648 -27 789 0 13 2 49 7 80 11 31 3
59 8 62 10 4 2 24 6 45 10 22 3 84 17 139 30 598 149 1118 467 1513 924 91
105 99 115 141 176 19 27 38 51 41 54 4 3 37 55 75 115 82 131 179 319 224
436 18 46 37 93 42 104 17 39 85 267 94 316 3 13 9 47 15 74 74 359 74 757 -1
1120 -30 145 -84 328 -141 470 -40 100 -160 347 -182 375 -7 8 -29 44 -51 80
-125 210 -362 482 -581 667 -281 238 -627 430 -979 543 -101 33 -311 87 -371
95 -21 3 -52 9 -69 12 -31 6 -37 7 -115 17 -117 14 -167 18 -322 20 -92 2
-169 2 -170 1z"/>
</g>
</svg>
